<?xml version="1.0" standalone="no"?>
<!DOCTYPE svg PUBLIC "-//W3C//DTD SVG 20010904//EN"
 "http://www.w3.org/TR/2001/REC-SVG-20010904/DTD/svg10.dtd">
<svg version="1.0" xmlns="http://www.w3.org/2000/svg"
 width="413.000000pt" height="413.000000pt" viewBox="0 0 413.000000 413.000000"
 preserveAspectRatio="xMidYMid meet">
<metadata>
Created by potrace 1.11, written by Peter Selinger 2001-2013
</metadata>
<g transform="translate(0.000000,413.000000) scale(0.100000,-0.100000)"
fill="#000000" stroke="none">
<path d="M1055 3017 c-32 -29 -64 -56 -71 -60 -23 -13 -16 -33 21 -58 l36 -24
-7 -60 c-3 -33 -7 -62 -9 -64 -16 -16 -546 -31 -638 -18 -36 5 -47 4 -47 -7 0
-17 89 -118 98 -112 4 2 32 7 62 11 30 4 57 8 60 10 3 2 30 6 60 10 30 4 77
11 105 15 56 9 246 11 287 3 29 -6 28 2 19 -144 -1 -9 -7 -16 -13 -17 -84 -7
-248 -8 -281 0 -23 5 -64 20 -91 34 -27 14 -57 27 -67 29 -21 4 -22 -1 -18
-140 2 -82 1 -192 -2 -440 -2 -146 6 -186 43 -209 13 -8 23 -3 48 24 34 38 69
105 70 133 0 9 8 17 18 18 87 2 204 0 209 -4 11 -12 -121 -179 -210 -266 -109
-106 -369 -327 -447 -380 -62 -42 -105 -66 -201 -110 -58 -27 -89 -55 -76 -68
13 -13 314 130 477 227 63 37 153 97 200 131 86 64 240 210 299 284 l32 40 -2
-314 -2 -314 24 -18 c13 -10 32 -20 42 -23 27 -7 79 44 113 111 l29 58 -1 175
c-1 96 -3 220 -4 275 -1 55 -1 125 -1 156 l1 57 40 4 c37 3 41 1 47 -22 59
-258 103 -340 237 -439 66 -49 305 -201 316 -201 4 0 30 18 56 40 60 50 138
80 207 80 48 0 88 12 77 24 -3 2 -50 18 -105 34 -180 54 -398 149 -492 213
-85 59 -253 238 -253 271 0 3 36 6 80 6 l80 0 9 -36 c5 -21 12 -52 16 -70 8
-38 36 -57 64 -43 29 16 122 123 137 158 10 24 14 84 14 228 l0 195 37 34 c21
19 36 36 33 38 -3 2 -36 31 -75 64 -38 33 -77 65 -85 71 -13 10 -24 5 -60 -28
-74 -67 -87 -71 -239 -72 l-136 -2 -1 77 -2 77 45 7 c43 6 309 -1 418 -11 28
-3 74 -7 103 -10 43 -4 56 -2 74 14 l21 20 -79 95 c-43 52 -82 95 -86 95 -3 1
-24 -16 -45 -36 -22 -21 -53 -51 -70 -67 l-31 -28 -149 0 c-81 0 -158 1 -170
1 -46 2 -20 71 52 140 l35 34 -67 50 c-38 27 -89 60 -114 73 l-47 23 -57 -52z
m462 -617 c2 -25 5 -62 7 -82 2 -29 -1 -38 -13 -39 -9 0 -24 -2 -33 -4 -10 -2
-67 -6 -127 -10 -106 -6 -110 -6 -121 15 -16 29 -20 148 -6 159 6 5 47 9 91
10 44 2 81 3 82 4 1 1 28 0 59 -3 l57 -5 4 -45z m-482 -57 c-4 -49 -9 -91 -11
-94 -2 -4 -48 -8 -101 -9 -54 -1 -122 -3 -150 -5 l-53 -3 0 99 0 99 161 0 160
0 -6 -87z m491 -180 c-15 -108 -17 -113 -40 -111 -11 0 -74 -2 -138 -6 -94 -6
-118 -5 -119 6 0 7 -2 38 -4 70 l-3 56 36 9 c21 5 84 11 142 12 58 1 107 5
109 7 16 15 22 -2 17 -43z m-501 -61 c0 -43 -3 -72 -10 -73 -14 0 -235 0 -266
0 -24 1 -25 3 -24 61 1 33 4 62 7 66 9 9 134 19 218 18 l74 -1 1 -71z"/>
<path d="M3517 2924 l-38 -55 -392 3 -392 3 -65 33 -64 34 -64 -33 -65 -33 29
-23 c16 -13 31 -23 34 -23 3 0 15 -15 28 -34 40 -59 46 -252 17 -561 -3 -27
-7 -72 -9 -100 -3 -27 -8 -84 -11 -125 -21 -247 -117 -427 -357 -674 -64 -67
-113 -122 -108 -124 13 -5 44 20 160 126 146 135 196 188 232 246 18 29 45 71
59 92 42 64 107 241 123 337 3 18 8 43 11 57 6 31 15 94 20 140 2 19 6 141 10
270 5 161 11 245 20 268 13 29 18 32 62 33 26 1 75 3 108 5 77 5 481 4 520 0
17 -2 43 -4 58 -5 l29 -1 -6 -112 c-15 -280 -15 -493 -2 -568 8 -41 16 -89 19
-107 28 -176 197 -483 330 -599 47 -41 131 -84 164 -84 29 0 73 20 73 34 0 6
-9 58 -19 116 -22 116 -19 285 4 358 12 34 -10 0 -76 -120 l-73 -131 -39 44
c-41 47 -153 212 -182 268 -82 160 -106 363 -74 631 19 163 36 228 68 260 16
16 31 42 34 57 5 24 -3 37 -56 91 -34 34 -66 62 -72 62 -5 -1 -27 -25 -48 -56z"/>
<path d="M3290 2623 c0 -16 -58 -73 -84 -83 -16 -6 -122 -10 -252 -10 -123 0
-224 -3 -224 -6 0 -4 10 -24 22 -45 l22 -39 60 5 c34 3 82 8 109 10 l47 5 0
-105 0 -105 -27 -1 c-73 -4 -109 4 -152 32 l-44 30 7 -271 c6 -279 13 -323 43
-298 9 7 27 37 42 67 21 44 33 57 62 67 20 6 48 10 62 7 26 -5 27 -7 28 -82 2
-96 0 -163 -5 -177 -2 -6 -37 -14 -78 -17 -40 -4 -106 -14 -145 -23 -41 -9
-81 -13 -90 -8 -10 4 -22 6 -26 5 -4 0 -16 -3 -27 -4 -11 -2 -22 -6 -26 -10
-6 -5 71 -147 80 -147 1 0 31 12 67 26 67 28 198 69 246 78 15 3 79 15 141 26
63 12 121 19 129 16 7 -3 29 -38 48 -78 37 -78 56 -108 72 -108 5 0 28 17 51
38 40 38 42 41 43 103 2 90 2 89 -44 137 -68 70 -188 147 -254 162 l-31 7 19
-31 c10 -17 32 -58 49 -91 35 -70 31 -75 -52 -75 -66 0 -62 -8 -59 120 4 141
-11 125 121 127 63 1 122 2 131 2 13 1 16 10 14 49 -2 26 -4 87 -5 137 -2 81
-1 90 19 103 11 8 21 20 21 27 0 18 -47 56 -98 79 l-42 19 -25 -23 c-19 -18
-37 -23 -80 -25 -30 -1 -55 -1 -56 -1 0 1 -2 20 -5 43 -5 33 -1 51 15 77 27
44 27 48 -10 69 -18 10 -28 21 -25 25 4 4 74 6 156 4 86 -2 151 1 154 7 8 13
-31 84 -71 126 -33 35 -43 41 -43 28z m-36 -450 c-2 -10 -5 -60 -7 -111 -2
-50 -6 -94 -8 -96 -18 -15 -69 -13 -97 5 l-32 19 2 92 2 93 36 6 c19 3 51 7
72 8 30 1 35 -2 32 -16z m-259 -13 c8 -26 8 -139 0 -184 l-7 -36 -52 6 c-28 4
-54 8 -57 10 -3 2 -12 24 -19 48 -9 33 -9 53 -2 75 9 25 8 32 -4 39 -21 12 -8
39 24 51 15 5 46 10 69 10 33 1 43 -3 48 -19z"/>
</g>
</svg>
